<?xml version="1.0" standalone="no"?>
<!DOCTYPE svg PUBLIC "-//W3C//DTD SVG 20010904//EN"
 "http://www.w3.org/TR/2001/REC-SVG-20010904/DTD/svg10.dtd">
<svg version="1.0" xmlns="http://www.w3.org/2000/svg"
 width="300.000000pt" height="300.000000pt" viewBox="0 0 300.000000 300.000000"
 preserveAspectRatio="xMidYMid meet">
<metadata>
Created by potrace 1.11, written by Peter Selinger 2001-2013
</metadata>
<g transform="translate(0.000000,300.000000) scale(0.100000,-0.100000)"
fill="#000000" stroke="none">
<path d="M706 2790 c-40 -12 -66 -38 -89 -90 -19 -43 -20 -65 -20 -421 1 -207
4 -400 8 -428 6 -42 15 -60 46 -92 21 -21 47 -39 59 -39 16 0 20 -7 21 -32 4
-134 3 -174 -5 -179 -4 -4 -3 -10 3 -13 6 -4 11 -2 11 3 0 6 5 11 12 11 7 0 5
-7 -5 -17 -10 -13 -15 -37 -15 -79 1 -34 -3 -68 -8 -75 -7 -12 -5 -12 9 0 10
8 17 9 17 3 0 -6 -4 -13 -9 -16 -5 -3 -10 -32 -10 -63 -6 -258 -3 -309 19
-368 6 -17 12 -32 12 -35 0 -3 11 -15 24 -27 13 -12 24 -27 24 -33 0 -5 4 -10
8 -10 5 0 18 -9 30 -20 12 -12 22 -18 22 -15 0 3 11 -2 24 -10 13 -9 47 -17
75 -18 28 -1 51 -6 51 -10 0 -4 8 -4 18 1 19 9 99 8 109 -1 3 -4 12 -2 20 4 9
9 13 8 13 0 0 -8 6 -9 18 -3 9 4 28 7 42 5 39 -4 73 -4 103 0 15 2 27 0 27 -4
0 -5 10 -5 23 0 12 4 28 6 35 4 7 -3 20 1 29 9 14 11 16 11 8 -1 -6 -11 -4
-13 8 -8 10 3 17 2 17 -3 0 -6 9 -6 25 0 17 7 25 6 25 -1 0 -7 11 -4 26 6 15
9 24 13 20 7 -6 -10 60 -23 70 -13 7 7 74 9 70 2 -2 -3 7 -6 20 -6 13 0 24 2
24 5 0 10 95 5 102 -5 5 -6 8 -6 8 1 0 12 56 12 67 0 3 -3 12 -1 20 5 10 9 13
8 13 0 0 -7 5 -9 11 -5 16 10 159 11 159 1 0 -4 6 -5 13 0 6 4 19 8 27 10 56
8 80 15 80 24 0 6 4 8 9 4 6 -3 13 1 18 8 4 8 18 19 31 26 12 6 22 18 22 26 0
8 4 15 9 15 5 0 18 18 30 40 11 22 18 40 15 40 -4 0 -2 6 3 13 6 6 9 20 8 30
-2 9 0 17 4 17 10 0 7 182 -3 199 -6 9 -5 12 1 8 13 -8 11 136 -2 145 -6 5 -6
8 1 8 13 0 13 138 -1 159 -5 9 -4 12 1 8 12 -7 12 293 0 312 -6 9 -5 12 1 8
13 -8 11 136 -2 145 -6 5 -6 8 1 8 13 0 13 138 -1 159 -5 9 -4 12 2 8 12 -8
11 132 -2 152 -5 9 -4 12 2 8 5 -3 9 14 9 44 0 27 -3 49 -6 49 -3 0 -6 19 -7
41 0 23 -6 46 -12 52 -6 6 -11 17 -11 24 0 24 -96 127 -110 118 -5 -3 -10 0
-12 7 -2 6 -15 13 -29 15 -36 7 -369 9 -369 3 0 -10 20 -35 20 -26 0 6 6 2 13
-9 10 -12 16 -14 21 -7 4 7 2 12 -3 12 -6 0 -11 5 -11 11 0 8 5 8 15 -1 12
-10 13 -16 4 -26 -9 -11 -15 -12 -26 -3 -7 7 -17 8 -21 4 -4 -4 -1 -10 6 -12
6 -3 12 -9 12 -15 0 -6 -6 -5 -15 2 -9 7 -14 19 -11 26 9 24 -19 42 -72 46
-50 3 -53 2 -49 -19 2 -12 0 -20 -4 -17 -5 3 -9 12 -9 20 0 10 -12 14 -39 14
-22 0 -46 3 -55 6 -9 3 -16 1 -16 -6 0 -6 4 -9 9 -6 12 8 99 -60 89 -69 -2 -3
-21 11 -42 31 -21 20 -41 33 -44 29 -4 -4 2 -13 13 -21 18 -14 18 -16 4 -27
-9 -7 -18 -19 -22 -27 -4 -12 -6 -11 -6 3 -1 10 6 20 14 23 12 5 12 9 -3 29
-9 13 -21 20 -26 17 -5 -3 -6 0 -3 5 4 6 -4 13 -18 15 -14 3 -25 1 -25 -3 0
-5 6 -9 13 -9 6 0 4 -5 -6 -11 -10 -6 -21 -8 -24 -5 -4 3 -1 6 5 6 7 0 6 9 -4
28 -7 15 -14 32 -14 39 0 24 -62 83 -98 93 -45 12 -694 12 -736 0z m1014 -160
c8 -5 11 -10 5 -10 -5 0 -17 5 -25 10 -8 5 -10 10 -5 10 6 0 17 -5 25 -10z
m87 4 c-3 -3 -12 -4 -19 -1 -8 3 -5 6 6 6 11 1 17 -2 13 -5z m53 -16 c0 -3 -9
-6 -20 -5 -11 1 -20 5 -20 9 0 3 9 6 20 5 11 -1 20 -5 20 -9z m-236 -7 c4 -5
3 -16 0 -25 -5 -13 -9 -14 -20 -5 -10 8 -14 8 -14 1 0 -6 8 -16 18 -21 9 -6
12 -11 7 -11 -6 0 -16 5 -23 12 -21 21 -24 0 -3 -23 12 -13 21 -27 21 -32 0
-5 -12 5 -26 23 -25 30 -26 31 -9 50 17 19 9 28 -11 13 -5 -5 -1 0 9 10 21 19
43 22 51 8z m151 -11 c-10 -11 -16 -23 -13 -26 3 -3 15 7 27 22 11 15 21 23
21 18 0 -5 -11 -22 -25 -38 -30 -35 -33 -57 -5 -31 20 18 21 18 42 -2 l21 -22
-33 -38 c-19 -21 -31 -30 -27 -20 8 21 -25 71 -38 59 -4 -4 -3 3 4 15 18 35
13 40 -14 10 -14 -15 -31 -27 -38 -27 -7 0 -6 -4 3 -10 8 -5 10 -10 4 -10 -5
0 -18 6 -28 13 -17 12 -17 15 -2 29 18 18 22 33 6 23 -5 -3 -10 -1 -10 4 0 13
10 14 29 2 12 -8 11 -13 -10 -30 -13 -11 -18 -20 -12 -21 7 0 27 14 45 30 32
29 32 31 14 45 -11 8 -15 15 -10 15 6 0 15 -5 22 -12 9 -9 13 -7 18 5 3 9 11
17 17 17 5 0 2 -9 -8 -20z m87 -17 c10 -9 18 -21 18 -26 0 -6 -8 0 -19 11 -10
12 -21 19 -25 15 -3 -3 -6 -1 -6 5 0 16 10 15 32 -5z m-42 -3 c0 -5 -5 -10
-11 -10 -5 0 -7 5 -4 10 3 6 8 10 11 10 2 0 4 -4 4 -10z m118 -4 c-10 -7 -16
-16 -13 -20 3 -3 -1 -1 -7 4 -10 9 -10 13 2 20 23 15 37 11 18 -4z m-286 -38
c-8 -8 -9 -4 -5 13 4 13 8 18 11 10 2 -7 -1 -18 -6 -23z m237 -25 c1 -7 -4
-13 -10 -13 -5 0 -8 4 -5 9 3 5 -6 17 -19 27 -14 10 -25 23 -25 27 0 13 59
-37 59 -50z m16 37 c3 -5 1 -10 -4 -10 -6 0 -11 5 -11 10 0 6 2 10 4 10 3 0 8
-4 11 -10z m-337 -41 c-3 -8 -7 -3 -11 10 -4 17 -3 21 5 13 5 -5 8 -16 6 -23z
m62 21 c0 -5 -2 -10 -4 -10 -3 0 -8 5 -11 10 -3 6 -1 10 4 10 6 0 11 -4 11
-10z m300 0 c0 -5 -8 -10 -17 -10 -15 0 -16 2 -3 10 19 12 20 12 20 0z m-222
-45 c9 1 11 0 4 -2 -7 -3 -10 -9 -7 -14 4 -5 2 -9 -4 -9 -5 0 -11 5 -13 12 -3
7 -17 12 -33 13 -16 0 -29 6 -31 13 -1 7 0 8 3 2 8 -16 26 -11 19 6 -5 12 0
11 19 -4 14 -11 33 -19 43 -17z m40 16 c22 -18 31 -38 13 -26 -5 3 -12 1 -16
-5 -3 -5 -12 -10 -18 -10 -7 0 -4 5 6 11 18 10 18 12 1 30 -22 24 -13 25 14 0z
m88 -26 c-24 -31 -36 -42 -36 -32 0 2 11 17 25 33 14 16 25 33 25 38 0 5 3 6
6 3 4 -4 -5 -22 -20 -42z m-231 6 c-6 -5 -25 10 -25 20 0 5 6 4 14 -3 8 -7 12
-15 11 -17z m338 9 c10 -12 9 -12 -3 -3 -10 8 -21 9 -30 3 -8 -6 -10 -10 -5
-10 6 0 3 -5 -5 -10 -23 -15 -33 -12 -16 6 9 8 16 19 16 24 0 12 28 6 43 -10z
m-87 -27 l-24 -26 34 -36 c32 -34 34 -35 51 -19 9 10 13 21 9 25 -5 5 -11 2
-13 -4 -3 -7 -9 -13 -14 -13 -5 0 -4 9 3 19 9 15 15 17 29 8 17 -11 17 -12 1
-31 -16 -18 -16 -19 3 -13 19 7 19 7 1 -8 -22 -17 -37 -11 -84 34 l-32 31 22
30 c12 17 26 30 30 30 5 0 -2 -12 -16 -27z m83 -9 c-9 -11 -8 -14 1 -14 8 0
10 -3 7 -6 -4 -4 -13 -1 -21 5 -11 10 -17 7 -30 -11 -14 -19 -18 -21 -26 -8
-13 20 -12 30 1 30 5 0 7 -4 4 -10 -9 -15 4 -12 22 5 8 8 20 12 26 8 6 -4 8 0
4 10 -4 11 -2 14 9 10 11 -4 12 -9 3 -19z m-169 -4 c0 -5 -4 -10 -10 -10 -5 0
-10 5 -10 10 0 6 5 10 10 10 6 0 10 -4 10 -10z m-33 -22 c-3 -8 -6 -5 -6 6 -1
11 2 17 5 13 3 -3 4 -12 1 -19z m53 2 c0 -5 -5 -10 -11 -10 -5 0 -7 5 -4 10 3
6 8 10 11 10 2 0 4 -4 4 -10z m-17 -21 c5 -3 2 -9 -5 -12 -9 -3 -14 3 -15 15
-1 11 1 16 5 12 4 -5 11 -12 15 -15z m45 -10 c-3 -8 -7 -3 -11 10 -4 17 -3 21
5 13 5 -5 8 -16 6 -23z m12 -34 c17 -11 30 -24 30 -29 0 -5 -7 -3 -15 4 -9 7
-15 8 -15 2 0 -6 14 -22 30 -35 30 -26 39 -47 20 -47 -5 0 -9 3 -7 8 3 11 -51
67 -59 59 -3 -3 1 -14 10 -23 19 -18 17 -36 -5 -42 -12 -3 -12 -2 1 7 12 8 12
13 -4 30 -18 20 -18 22 -2 40 17 19 17 20 -3 31 -12 6 -20 18 -20 28 1 13 2
14 5 2 3 -8 18 -24 34 -35z m61 -15 c5 0 9 -5 9 -11 0 -5 -4 -8 -9 -4 -5 3
-11 0 -14 -7 -2 -7 -3 -5 -2 4 2 9 -8 24 -21 33 -13 8 -24 20 -24 25 0 5 12
-2 26 -15 15 -14 31 -25 35 -25z m-98 -8 c-7 -7 -10 -19 -7 -27 4 -8 1 -15 -4
-15 -11 0 -9 31 3 50 3 6 -1 13 -9 16 -9 3 -13 10 -11 15 3 4 14 1 23 -9 14
-14 15 -20 5 -30z m151 -8 c3 -8 2 -12 -4 -9 -6 3 -10 10 -10 16 0 14 7 11 14
-7z m6 -41 c0 -3 -9 2 -20 12 -11 10 -20 22 -20 27 0 4 9 -1 20 -12 11 -11 20
-23 20 -27z m-45 17 c3 -5 1 -10 -4 -10 -6 0 -11 5 -11 10 0 6 2 10 4 10 3 0
8 -4 11 -10z m-115 -32 c0 6 5 12 12 12 6 0 1 -11 -12 -25 -20 -22 -21 -25 -6
-31 14 -5 14 -9 4 -22 -11 -13 -10 -14 10 -8 13 5 22 3 22 -3 0 -6 -3 -10 -7
-10 -19 3 -34 -2 -29 -9 3 -5 -1 -9 -9 -9 -8 0 -11 5 -7 11 11 18 11 40 1 52
-7 8 -7 14 0 18 6 4 8 14 5 24 -5 14 -4 15 5 2 7 -10 11 -11 11 -2z m151 -5
c13 -16 12 -17 -3 -5 -9 8 -22 11 -28 7 -5 -3 -10 -1 -10 4 0 17 26 13 41 -6z
m-98 -27 c-17 -23 -41 -38 -28 -17 3 5 0 11 -7 14 -7 2 -5 3 5 1 10 -1 23 6
30 16 6 11 13 17 15 15 2 -2 -4 -15 -15 -29z m91 8 c9 -3 16 -11 16 -17 0 -7
-4 -7 -12 1 -7 7 -19 12 -27 12 -8 0 -11 -3 -8 -7 4 -3 -2 -12 -13 -20 -11 -8
-20 -21 -20 -30 0 -12 7 -9 26 10 24 24 52 29 38 6 -3 -5 -9 -7 -14 -4 -5 3
-15 -4 -24 -16 -14 -21 -36 -19 -36 4 0 15 40 67 51 67 4 0 14 -3 23 -6z m-74
-24 c-11 -11 -20 -25 -20 -31 0 -16 69 -83 78 -75 4 4 0 13 -9 20 -13 9 -14
15 -5 26 13 17 51 27 41 11 -3 -6 -13 -11 -21 -11 -16 0 -19 -16 -3 -25 5 -4
8 -12 6 -18 -2 -7 2 -19 9 -27 11 -14 10 -16 -7 -17 -13 -1 -19 4 -17 14 2 9
-3 18 -10 20 -8 3 -10 -1 -5 -14 7 -17 6 -17 -11 0 -23 23 -44 22 -23 -1 10
-10 17 -22 17 -27 0 -4 -9 3 -21 16 -24 28 -39 30 -57 9 -12 -13 -13 -13 -8 3
6 19 -10 24 -17 5 -2 -7 -4 1 -3 18 1 27 4 31 23 28 23 -4 32 10 13 19 -6 3
-5 4 2 3 19 -4 16 -31 -4 -31 -18 0 -38 -14 -22 -16 5 0 17 -2 27 -4 9 -2 17
1 17 7 0 6 8 7 18 3 9 -4 24 -9 32 -12 8 -4 0 9 -17 27 -18 18 -33 38 -33 44
0 16 29 56 41 56 5 0 0 -9 -11 -20z m88 -95 c-3 -3 -9 2 -12 12 -6 14 -5 15 5
6 7 -7 10 -15 7 -18z m-124 -50 c-10 -8 -25 -15 -32 -15 -7 0 -11 -4 -8 -8 3
-5 -1 -9 -9 -9 -10 0 -12 4 -5 12 5 7 7 14 4 18 -3 3 3 3 14 0 11 -2 23 0 26
6 4 6 12 11 19 11 6 0 2 -7 -9 -15z m44 -24 c23 -20 29 -41 11 -41 -5 0 -8 4
-5 8 5 8 -28 42 -39 42 -3 0 -3 -10 -1 -22 3 -13 5 -25 5 -28 1 -3 6 2 11 10
6 9 10 10 10 3 0 -18 -21 -27 -30 -12 -5 7 -6 17 -4 21 3 4 1 8 -5 8 -20 0
-20 -18 1 -45 18 -23 22 -25 30 -11 5 9 17 16 26 15 14 0 14 -2 2 -6 -8 -4
-20 -13 -27 -22 -6 -9 -13 -14 -15 -11 -2 3 -14 17 -27 33 l-24 27 23 25 c28
30 29 30 58 6z m37 9 c3 -5 1 -10 -4 -10 -6 0 -11 5 -11 10 0 6 2 10 4 10 3 0
8 -4 11 -10z m35 -15 c-10 -12 -10 -15 1 -15 8 0 5 -6 -7 -15 -23 -17 -34 -19
-34 -4 0 5 4 8 9 4 5 -3 12 -1 16 5 3 5 -2 11 -12 11 -17 1 -17 2 0 6 9 2 17
9 17 14 0 5 5 9 11 9 8 0 8 -5 -1 -15z m-102 -105 l43 -45 19 22 c17 22 18 22
35 3 10 -11 13 -20 7 -20 -6 0 -12 6 -14 12 -3 9 -9 8 -22 -5 -10 -9 -21 -17
-26 -17 -15 0 -105 97 -108 116 -2 17 -1 17 10 -1 6 -11 31 -40 56 -65z m96
38 c-16 -18 -17 -21 -2 -15 12 4 15 2 11 -9 -4 -11 -9 -12 -18 -4 -10 8 -17 5
-29 -12 -14 -19 -18 -21 -26 -8 -13 20 -12 30 1 30 5 0 7 -4 4 -10 -13 -22 11
-8 35 19 14 16 29 30 34 30 5 1 1 -9 -10 -21z m-29 2 c-3 -5 -14 -10 -23 -9
-14 0 -13 2 3 9 27 11 27 11 20 0z m-85 -73 c0 -6 -8 0 -19 11 -10 12 -20 20
-22 17 -3 -2 -5 5 -5 16 0 17 3 16 23 -8 13 -14 23 -31 23 -36z m-45 3 c-3 -5
5 -21 19 -34 14 -13 26 -27 26 -31 0 -4 -14 6 -30 24 -26 27 -32 51 -14 51 3
0 2 -4 -1 -10z m79 -50 c5 0 2 8 -7 18 -25 27 -21 36 5 10 19 -19 20 -22 5
-33 -18 -13 -24 -30 -7 -20 6 3 10 1 10 -5 0 -7 -6 -10 -12 -7 -7 2 -12 12
-12 21 1 9 -9 24 -22 33 -13 8 -24 19 -24 25 0 5 12 -3 27 -17 15 -14 32 -25
37 -25z m81 24 c14 -6 14 -8 -2 -27 -17 -20 -17 -20 0 -14 11 4 16 3 12 -3 -7
-12 -35 -13 -35 -2 0 4 5 13 12 20 6 6 9 14 6 18 -7 6 -43 -26 -51 -47 -4 -10
-6 -9 -6 3 -1 9 7 22 17 27 9 6 13 11 7 11 -5 0 -3 5 5 10 18 12 15 11 35 4z
m-135 -58 c0 -6 -5 -4 -10 4 -9 13 -10 13 -10 0 0 -13 -2 -13 -9 0 -6 8 -7 18
-4 23 6 10 33 -11 33 -27z m92 -18 c-8 -8 -9 -4 -5 13 4 13 8 18 11 10 2 -7
-1 -18 -6 -23z m-67 12 c3 -5 1 -10 -4 -10 -6 0 -11 5 -11 10 0 6 2 10 4 10 3
0 8 -4 11 -10z m115 -12 c0 -4 -5 -8 -11 -8 -22 0 -74 -60 -74 -87 0 -35 -19
-40 -33 -8 -6 14 -8 25 -3 25 5 0 12 -10 16 -22 3 -13 9 -18 11 -11 8 19 -14
51 -33 49 -10 -2 -12 -1 -5 1 7 3 10 9 7 14 -10 15 7 10 19 -6 10 -14 16 -10
46 23 33 36 60 50 60 30z m-153 -12 c-3 -7 -1 -18 4 -23 7 -7 6 -12 -3 -15 -9
-4 -13 4 -13 23 -1 16 3 29 8 29 5 0 7 -6 4 -14z m83 7 c0 -5 -7 -16 -14 -26
-12 -15 -14 -15 -19 -2 -4 8 -13 12 -22 9 -8 -3 -15 -2 -15 3 0 5 9 9 20 10
11 1 20 -3 20 -8 0 -6 5 -7 10 -4 6 4 8 11 5 16 -4 5 -1 9 4 9 6 0 11 -3 11
-7z m63 -30 c-13 -8 -23 -20 -23 -25 0 -6 7 -5 15 2 9 7 18 10 22 7 3 -4 -2
-9 -11 -13 -9 -3 -13 -10 -10 -15 3 -5 9 -7 13 -5 3 3 7 -4 7 -14 0 -10 -6
-16 -13 -13 -7 3 -11 9 -8 13 3 5 -5 16 -17 24 -12 9 -20 17 -17 19 16 13 54
37 59 36 3 0 -5 -7 -17 -16z m-38 -70 c-19 -18 -30 -17 -15 2 9 10 9 15 1 15
-6 0 -11 5 -11 10 0 6 7 6 19 -2 16 -9 17 -14 6 -25z m-63 -41 c13 -10 17 -10
22 3 3 8 13 15 23 14 14 0 15 -2 3 -6 -8 -4 -20 -13 -26 -22 -10 -13 -15 -11
-37 15 -15 16 -26 38 -26 49 0 15 3 12 13 -10 7 -17 20 -36 28 -43z m-1058 13
c9 -14 12 -25 6 -25 -5 0 -10 4 -10 9 0 5 -7 17 -16 25 -8 9 -11 16 -6 16 5 0
17 -11 26 -25z m1063 -55 l44 -45 29 35 c16 19 32 32 36 27 4 -4 3 -7 -3 -7
-6 0 -10 -6 -9 -14 0 -8 -3 -15 -7 -15 -4 0 -15 -7 -23 -16 -9 -8 -19 -15 -24
-15 -15 0 -105 97 -108 116 -2 17 -1 17 10 -1 6 -11 31 -40 55 -65z m99 58 c8
-6 1 -19 -24 -44 -26 -26 -37 -32 -43 -22 -12 18 -11 28 2 28 5 0 7 -4 4 -10
-10 -17 3 -11 30 12 28 25 32 38 10 38 -8 0 -15 5 -15 11 0 10 12 6 36 -13z
m-1129 -3 c0 -8 -4 -12 -9 -9 -4 3 -8 9 -8 15 0 5 4 9 8 9 5 0 9 -7 9 -15z
m-48 -66 c-10 -6 -10 -9 -1 -9 6 0 12 -5 12 -11 0 -8 -5 -8 -15 1 -12 10 -13
16 -4 27 9 10 9 17 1 25 -7 7 -12 19 -12 28 0 8 8 0 17 -18 14 -29 14 -35 2
-43z m1146 51 c-3 -5 -14 -10 -23 -9 -14 0 -13 2 3 9 27 11 27 11 20 0z m-85
-73 c0 -6 -8 0 -19 11 -10 12 -20 20 -22 17 -3 -2 -5 5 -5 16 0 17 3 16 23 -8
13 -14 23 -31 23 -36z m-1013 47 c-3 -3 -12 -4 -19 -1 -8 3 -5 6 6 6 11 1 17
-2 13 -5z m-3 -26 c-3 -4 -9 -8 -15 -8 -5 0 -9 4 -9 8 0 5 7 9 15 9 8 0 12 -4
9 -9z m971 -18 c-3 -5 5 -21 19 -35 26 -26 34 -41 17 -30 -5 3 -12 -4 -16 -15
-3 -11 -11 -20 -16 -20 -6 0 -3 10 5 22 14 19 13 23 -4 46 -17 21 -19 42 -4
42 3 0 2 -4 -1 -10z m79 -50 c5 0 2 8 -7 18 -25 27 -21 36 5 10 20 -20 20 -22
3 -34 -10 -8 -16 -17 -12 -20 3 -3 17 6 32 20 30 30 64 50 73 42 3 -3 1 -6 -5
-6 -5 0 -27 -15 -48 -32 -43 -37 -61 -42 -59 -15 1 10 -9 25 -22 34 -13 8 -24
19 -24 25 0 5 12 -3 27 -17 15 -14 32 -25 37 -25z m-1044 36 c0 -2 -7 -6 -15
-10 -8 -3 -15 -1 -15 4 0 6 7 10 15 10 8 0 15 -2 15 -4z m-54 -34 c-17 -16
-18 -16 -5 5 7 12 15 20 18 17 3 -2 -3 -12 -13 -22z m44 -2 c-24 -15 -36 -11
-14 4 10 8 21 12 24 10 2 -3 -2 -9 -10 -14z m1127 -9 c0 -11 -4 -18 -8 -15 -4
2 -14 -5 -22 -16 -7 -11 -17 -17 -20 -13 -4 3 -7 -1 -7 -9 0 -9 6 -21 14 -27
15 -13 49 -4 40 10 -3 5 3 6 12 2 12 -4 14 -8 6 -11 -10 -3 -10 -7 -1 -18 7
-9 8 -14 1 -14 -6 0 -12 5 -14 12 -3 7 -10 8 -17 3 -10 -6 -8 -11 10 -21 13
-7 18 -13 11 -14 -15 0 -72 56 -72 72 0 8 52 68 67 77 1 0 1 -8 0 -18z m-154
-6 c-3 -9 -8 -14 -10 -11 -3 3 -2 9 2 15 9 16 15 13 8 -4z m-966 -10 c0 -8 -4
-12 -9 -9 -4 3 -8 0 -8 -5 0 -6 -5 -11 -11 -11 -5 0 -8 4 -4 9 3 5 0 11 -7 14
-7 2 -5 3 4 2 10 -2 21 1 24 6 8 13 11 11 11 -6z m1007 -29 c-9 -7 -14 -18
-10 -24 4 -7 2 -12 -3 -12 -6 0 -11 5 -11 10 0 18 24 49 33 43 4 -3 0 -11 -9
-17z m126 3 c0 -5 -5 -7 -10 -4 -6 3 -13 -1 -16 -9 -3 -9 -10 -16 -15 -16 -5
0 -4 9 3 20 14 21 38 27 38 9z m-1125 -18 c-8 -14 -25 -14 -25 0 0 5 5 7 10 4
6 -3 10 -1 10 6 0 7 3 10 6 6 3 -3 3 -10 -1 -16z m1027 7 c-7 -7 -12 -16 -12
-22 0 -5 3 -7 6 -3 9 9 57 -51 50 -62 -4 -5 -1 -13 5 -16 5 -4 8 -13 5 -21 -3
-7 -1 -16 4 -19 6 -4 10 -1 10 4 0 6 5 11 11 11 8 0 8 -5 -1 -15 -10 -12 -16
-13 -26 -4 -8 6 -11 15 -8 20 3 5 2 15 -3 22 -4 6 -8 19 -10 27 -1 8 -13 24
-27 35 -28 23 -33 40 -13 48 20 9 22 8 9 -5z m-1062 -8 c0 -5 -4 -10 -10 -10
-5 0 -10 5 -10 10 0 6 5 10 10 10 6 0 10 -4 10 -10z m1000 0 c0 -5 -2 -10 -4
-10 -3 0 -8 5 -11 10 -3 6 -1 10 4 10 6 0 11 -4 11 -10z m-1025 -20 c3 -5 1
-10 -4 -10 -6 0 -11 5 -11 10 0 6 2 10 4 10 3 0 8 -4 11 -10z m64 -12 c-8 -8
-27 -14 -44 -15 -16 0 -22 1 -12 4 9 2 15 9 12 14 -4 5 -1 9 4 9 6 0 11 -5 11
-12 0 -8 6 -6 17 5 9 9 19 15 21 12 2 -2 -2 -10 -9 -17z m978 -15 c18 -21 22
-53 6 -53 -3 0 -3 7 1 15 3 8 -3 20 -14 28 -11 8 -17 17 -13 20 3 4 -1 7 -10
7 -22 0 -22 -15 1 -32 19 -15 27 -38 12 -38 -5 0 -10 6 -10 14 0 8 -5 16 -11
18 -6 2 -13 16 -14 30 -2 21 0 25 13 21 10 -3 27 -17 39 -30z m-917 -16 c13 4
13 3 0 -6 -8 -5 -18 -7 -22 -5 -13 8 -9 -6 6 -22 18 -17 30 -18 23 -1 -3 8 3
13 14 13 19 0 19 -1 0 -20 -19 -19 -20 -19 -45 1 -18 15 -22 23 -14 31 7 7 9
15 5 18 -3 4 -13 0 -21 -9 -8 -8 -12 -17 -9 -21 13 -13 -13 -5 -32 10 -20 16
-20 16 1 10 14 -4 27 0 39 14 18 20 19 20 29 2 6 -11 18 -17 26 -15z m958 13
c24 -23 29 -40 10 -40 -6 0 -8 3 -5 7 4 3 -5 17 -19 30 -14 12 -21 23 -16 23
4 0 18 -9 30 -20z m-45 -63 c12 1 16 0 9 -3 -7 -3 -25 -17 -39 -30 -30 -28
-51 -33 -25 -6 9 11 20 17 25 15 9 -5 9 11 0 21 -4 3 -26 -15 -51 -40 -26 -28
-42 -39 -40 -29 2 10 -3 20 -10 22 -8 3 -10 -1 -5 -13 6 -15 3 -14 -17 4 -32
29 -50 28 -22 -1 12 -13 22 -27 22 -32 0 -4 -10 4 -22 18 -19 21 -26 24 -39
14 -9 -7 -18 -19 -22 -27 -4 -13 -6 -12 -6 1 -1 9 10 24 23 32 13 9 23 24 22
33 0 9 5 19 12 21 6 3 12 0 12 -7 0 -6 -4 -8 -10 -5 -17 11 -11 -7 8 -21 21
-17 40 -18 24 -2 -24 24 -11 26 14 3 l26 -24 37 34 c33 32 35 36 20 51 -11 11
-19 12 -23 5 -4 -6 -2 -11 3 -11 6 0 11 -5 11 -10 0 -6 -8 -5 -20 2 -11 7 -15
15 -9 17 8 2 7 7 -2 13 -11 8 -10 9 4 4 9 -3 17 0 17 6 0 7 11 -4 25 -23 18
-23 33 -33 48 -32z m-1033 13 c-10 -7 -11 -10 -2 -10 6 0 12 -5 12 -11 0 -8
-5 -8 -15 1 -10 9 -12 16 -5 25 6 7 6 16 0 23 -6 7 -2 5 8 -3 15 -14 15 -17 2
-25z m1178 4 c2 -1 -4 -4 -13 -8 -9 -3 -13 -2 -10 4 3 6 1 10 -4 10 -6 0 -11
5 -11 11 0 8 6 7 18 -2 9 -7 18 -14 20 -15z m-623 6 c-4 -6 -24 -22 -46 -36
-21 -13 -39 -32 -39 -42 1 -16 1 -16 13 0 8 9 20 18 28 20 8 2 22 12 32 22 9
10 17 15 17 11 0 -5 -7 -17 -17 -27 -21 -23 0 -24 23 0 17 16 18 16 11 -1 -5
-13 -3 -17 5 -14 7 2 12 11 10 19 -2 15 20 31 44 33 6 0 20 7 30 15 19 14 19
14 0 -7 -10 -13 -23 -20 -28 -17 -14 9 -38 -16 -31 -32 3 -8 0 -14 -7 -14 -6
0 -8 -5 -5 -10 4 -6 11 -8 16 -5 5 4 9 2 9 -4 0 -5 7 -17 16 -25 8 -9 12 -16
7 -16 -12 0 -40 20 -28 20 5 0 -1 7 -14 17 -23 16 -25 15 -51 -14 l-28 -31
-31 27 c-35 30 -38 43 -15 65 14 14 14 16 0 16 -8 0 -20 -9 -26 -20 -13 -24
-2 -49 35 -78 19 -15 22 -21 11 -25 -9 -4 -12 -14 -9 -26 3 -12 1 -21 -6 -21
-6 0 -8 7 -4 17 4 11 3 14 -5 9 -7 -4 -12 -3 -12 2 0 6 8 13 17 17 15 5 13 10
-14 34 -18 16 -30 31 -26 35 3 3 0 6 -7 6 -11 0 -11 3 -2 12 20 20 13 32 -8
13 -24 -22 -27 -13 -4 10 9 9 13 19 9 23 -4 4 -16 -4 -28 -18 -12 -16 -18 -18
-14 -7 4 9 3 17 -2 17 -13 0 -58 -39 -45 -40 5 0 15 5 22 12 9 9 12 9 12 0 0
-7 -4 -12 -9 -12 -5 0 -23 -12 -40 -26 -17 -14 -35 -23 -40 -20 -5 4 -12 2
-16 -4 -3 -5 -12 -10 -18 -10 -7 0 -4 5 5 11 11 6 15 16 11 27 -5 15 -4 15 9
-1 13 -18 15 -18 38 2 14 11 20 20 13 21 -6 0 -15 -4 -18 -10 -3 -5 -11 -10
-18 -10 -6 0 -3 6 8 13 17 13 17 15 -6 30 -33 24 -49 21 -20 -3 13 -11 18 -20
13 -20 -6 0 -22 12 -36 27 -14 15 -28 24 -32 21 -3 -4 3 -17 15 -29 12 -13 21
-27 21 -32 0 -5 -9 2 -21 17 -19 25 -39 27 -39 5 0 -6 4 -8 9 -5 5 3 14 -1 21
-9 9 -10 9 -15 1 -15 -6 0 -11 4 -11 9 0 4 -12 8 -27 7 -14 -1 -28 5 -30 12
-3 6 0 12 7 12 6 0 8 -4 5 -10 -11 -17 7 -11 21 8 18 23 17 37 -1 22 -9 -7
-18 -10 -22 -7 -3 4 -12 2 -20 -5 -7 -6 -15 -9 -17 -7 -2 2 11 15 28 29 17 13
25 17 17 7 -8 -10 -9 -17 -3 -17 6 0 16 8 21 18 7 11 10 13 11 3 0 -11 3 -11
15 -1 12 10 15 10 15 0 0 -9 4 -9 17 1 11 10 14 10 9 2 -8 -14 6 -18 18 -6 10
10 46 11 40 1 -8 -12 10 -10 24 4 7 7 12 8 12 4 0 -4 -10 -16 -22 -26 -13 -10
-19 -22 -15 -26 4 -5 11 -4 15 2 16 23 79 51 95 43 10 -6 18 -5 22 1 3 5 12
10 18 10 7 0 4 -5 -5 -11 -27 -15 -21 -29 7 -16 14 7 25 15 25 20 0 4 5 7 11
7 8 0 8 -5 -1 -15 -18 -22 4 -19 31 5 27 22 33 24 24 10z m38 -15 c-10 -8 -20
-11 -23 -8 -3 3 1 8 8 10 6 3 10 9 7 14 -4 5 1 6 10 3 14 -6 14 -8 -2 -19z
m182 -5 c-16 -16 -26 -33 -22 -36 4 -4 16 3 27 16 11 13 20 19 20 13 0 -18
-37 -44 -54 -37 -9 3 -16 3 -16 0 0 -12 34 -45 42 -40 4 3 8 0 8 -5 0 -20 -25
-11 -43 15 -18 24 -18 26 -1 45 23 25 4 25 -26 -1 l-23 -20 23 -20 c13 -11 19
-20 15 -20 -5 0 -19 10 -32 22 -28 27 -31 10 -3 -20 12 -12 16 -22 11 -22 -5
0 -18 14 -28 30 -9 17 -21 30 -26 30 -4 0 -5 -4 -2 -10 3 -5 1 -10 -5 -10 -7
0 -10 6 -7 13 2 6 11 12 20 12 9 0 37 14 63 30 26 17 51 30 55 30 4 0 11 3 15
8 4 4 10 7 13 7 2 0 -8 -13 -24 -30z m54 4 c-6 -8 -15 -12 -18 -8 -3 4 0 9 7
11 6 3 9 10 6 15 -4 7 -2 8 5 4 9 -6 9 -11 0 -22z m51 10 c0 4 9 -2 19 -15 11
-13 22 -21 26 -17 4 4 0 14 -9 23 -24 24 -19 31 7 9 12 -10 24 -20 27 -22 5
-3 -21 -22 -31 -22 -10 0 -59 45 -59 55 0 6 5 3 10 -5 5 -8 10 -11 10 -6z
m-845 -4 c3 -5 1 -10 -4 -10 -6 0 -11 5 -11 10 0 6 2 10 4 10 3 0 8 -4 11 -10z
m662 -14 c-8 -8 -17 -12 -21 -9 -3 4 -6 1 -6 -5 0 -7 -6 -12 -12 -12 -7 1 0
12 17 25 31 26 48 26 22 1z m378 14 c3 -5 1 -10 -4 -10 -6 0 -11 5 -11 10 0 6
2 10 4 10 3 0 8 -4 11 -10z m-1005 -10 c0 -5 -2 -10 -4 -10 -3 0 -8 5 -11 10
-3 6 -1 10 4 10 6 0 11 -4 11 -10z m1040 0 c0 -5 -2 -10 -4 -10 -3 0 -8 5 -11
10 -3 6 -1 10 4 10 6 0 11 -4 11 -10z m-979 -43 c4 2 6 -4 2 -13 -5 -13 -10
-11 -29 13 -29 35 -32 55 -3 22 12 -13 25 -23 30 -22z m-81 21 c0 -6 -3 -8 -6
-5 -4 4 -15 -3 -25 -15 -11 -11 -19 -17 -19 -13 0 11 31 45 42 45 4 0 8 -5 8
-12z m1015 2 c-3 -5 -14 -10 -23 -9 -14 0 -13 2 3 9 27 11 27 11 20 0z m43 -8
l21 -18 -30 -18 c-16 -9 -29 -22 -29 -27 0 -6 13 -1 29 10 16 12 33 21 37 21
4 0 -6 -11 -24 -23 -17 -13 -28 -27 -24 -32 4 -4 -3 -1 -15 6 -30 18 -29 21 8
43 29 17 30 19 13 37 -22 24 -14 25 14 1z m-973 -50 c4 10 12 15 17 12 6 -4 4
-11 -6 -16 -16 -9 -16 -11 0 -29 18 -20 40 -27 29 -9 -3 6 -1 10 4 10 6 0 11
-4 11 -8 0 -5 15 -8 34 -7 28 2 33 0 28 -13 -4 -10 -7 -12 -10 -4 -2 7 -8 12
-13 12 -6 0 -8 -4 -5 -9 3 -5 -1 -11 -9 -14 -9 -4 -12 -1 -9 8 4 10 -1 13 -19
10 -18 -4 -33 3 -56 27 -34 35 -55 32 -22 -3 12 -13 21 -27 21 -31 0 -5 -10 3
-23 18 l-23 26 -47 -32 c-26 -17 -47 -36 -47 -42 0 -6 -3 -8 -7 -5 -3 4 2 17
13 29 14 16 15 20 4 16 -11 -4 -16 1 -17 13 -2 17 0 18 13 4 24 -24 40 -17 17
8 l-21 22 29 23 c33 27 40 19 7 -9 -11 -11 -18 -22 -14 -26 4 -4 21 7 39 25
17 18 26 32 19 32 -6 0 -12 6 -12 13 0 6 16 -6 34 -28 29 -34 35 -37 41 -23z
m505 54 c0 -3 -4 -8 -10 -11 -5 -3 -10 -1 -10 4 0 6 5 11 10 11 6 0 10 -2 10
-4z m159 -25 c-13 -11 -28 -20 -32 -21 -4 0 5 11 20 24 15 13 30 23 32 20 2
-2 -7 -12 -20 -23z m263 -11 c-16 -10 -37 -29 -46 -41 -9 -13 -16 -19 -16 -15
0 5 -3 7 -6 4 -3 -4 -1 -17 6 -30 10 -20 10 -21 -3 -6 -8 10 -16 16 -19 13 -2
-3 -5 2 -5 10 0 8 4 15 10 15 5 0 24 15 42 34 18 19 36 32 39 29 3 -4 6 -1 6
6 0 7 5 9 11 5 6 -4 -1 -13 -19 -24z m-39 2 c-10 -11 -21 -17 -24 -15 -4 1 -9
-4 -13 -12 -3 -8 -13 -15 -23 -14 -12 0 -13 2 -5 6 7 3 25 16 39 29 30 28 51
33 26 6z m-633 -2 c0 -5 -5 -10 -11 -10 -5 0 -7 5 -4 10 3 6 8 10 11 10 2 0 4
-4 4 -10z m28 -25 c-3 -3 -9 2 -12 12 -6 14 -5 15 5 6 7 -7 10 -15 7 -18z
m-228 6 c0 -5 15 -8 33 -6 17 2 24 1 14 -1 -9 -3 -15 -10 -12 -15 4 -5 1 -9
-4 -9 -6 0 -11 4 -11 9 0 5 -15 8 -32 6 -18 -2 -25 -1 -15 1 9 3 15 10 12 15
-4 5 -1 9 4 9 6 0 11 -4 11 -9z m190 -8 c0 -3 -7 -3 -15 1 -8 3 -21 -4 -30
-17 -8 -12 -15 -17 -15 -13 0 5 -3 7 -6 3 -3 -3 4 -21 16 -39 l22 -33 -22 25
c-12 14 -29 25 -38 25 -8 0 -17 6 -19 13 -3 6 0 12 7 12 6 0 8 -4 5 -10 -12
-19 4 -10 35 20 18 17 36 27 45 24 8 -4 15 -8 15 -11z m488 -59 c-10 -11 -15
-23 -12 -27 4 -3 -4 -4 -16 -2 -36 7 -39 17 -5 15 8 -1 35 27 35 35 0 14 -37
-2 -62 -27 -38 -38 -36 -19 2 20 19 20 27 37 23 47 -3 9 7 4 24 -12 28 -27 28
-29 11 -49z m102 72 c0 -2 -9 -6 -20 -9 -11 -3 -18 -1 -14 4 5 9 34 13 34 5z
m-560 -31 c0 6 5 2 11 -7 5 -10 15 -18 21 -18 9 0 9 3 0 12 -7 7 -12 16 -12
20 0 4 8 0 18 -9 15 -15 16 -20 5 -26 -8 -5 -20 -4 -29 4 -8 6 -18 8 -22 4 -4
-4 -1 -10 6 -12 6 -3 12 -9 12 -14 0 -6 -4 -8 -9 -5 -5 4 -11 1 -13 -6 -3 -7
-5 10 -5 37 0 35 2 44 8 30 4 -11 8 -15 9 -10z m193 1 c20 -20 22 -26 10 -42
-7 -10 -13 -14 -13 -9 0 5 -7 0 -16 -11 -15 -18 -15 -18 -5 3 6 12 16 24 23
26 9 4 9 8 3 14 -16 13 -38 43 -32 43 3 0 17 -11 30 -24z m71 -1 c9 -14 21
-23 26 -20 6 3 18 1 27 -5 16 -10 16 -11 1 -6 -9 3 -27 -4 -40 -14 -13 -11
-18 -19 -11 -20 6 0 15 5 18 10 3 6 14 10 23 10 11 0 7 -5 -11 -15 -37 -19
-65 -10 -37 14 20 16 20 16 -5 44 -14 15 -22 27 -17 27 6 0 17 -11 26 -25z
m138 -7 c-8 -8 -9 -4 -5 13 4 13 8 18 11 10 2 -7 -1 -18 -6 -23z m93 12 c3 -5
1 -10 -4 -10 -6 0 -11 5 -11 10 0 6 2 10 4 10 3 0 8 -4 11 -10z m-525 -12 c0
-4 -7 -8 -15 -8 -8 0 -15 -4 -15 -10 0 -5 5 -9 11 -7 6 1 14 -5 16 -13 4 -13
3 -13 -6 0 -10 13 -11 13 -11 0 -1 -12 -2 -12 -10 2 -6 9 -8 23 -5 30 6 16 35
20 35 6z m194 -4 c8 -21 8 -24 -5 -24 -5 0 -7 5 -4 10 3 6 1 10 -4 10 -6 0
-11 -4 -11 -8 0 -5 -11 -14 -25 -20 -15 -7 -25 -8 -25 -2 0 6 7 10 15 10 8 0
20 9 27 20 15 24 24 25 32 4z m166 6 c0 -5 -2 -10 -4 -10 -3 0 -8 5 -11 10 -3
6 -1 10 4 10 6 0 11 -4 11 -10z m200 0 c0 -5 -2 -10 -4 -10 -3 0 -8 5 -11 10
-3 6 -1 10 4 10 6 0 11 -4 11 -10z m130 -21 c0 -3 -7 -6 -15 -6 -8 0 -11 5 -8
10 3 5 0 7 -8 5 -8 -3 -13 -14 -11 -24 2 -15 1 -16 -7 -5 -6 9 -5 20 2 32 8
14 14 15 29 6 10 -7 18 -14 18 -18z m-280 14 c-1 -11 -30 -48 -30 -38 0 5 -7
0 -15 -11 -13 -16 -14 -16 -9 -1 4 10 15 22 25 28 11 5 17 14 14 20 -4 5 -1 9
4 9 6 0 11 -3 11 -7z m166 -8 c-3 -8 4 -21 17 -30 12 -8 16 -15 10 -15 -19 0
-43 29 -37 45 4 8 8 15 11 15 3 0 3 -7 -1 -15z m-858 -7 c7 -10 3 -18 -16 -32
l-27 -20 19 22 c11 12 16 25 12 29 -3 4 -13 -3 -22 -15 -8 -12 -19 -20 -24
-17 -4 3 -10 0 -12 -7 -3 -9 -6 -9 -12 0 -4 7 -2 12 3 12 21 0 26 3 39 21 15
22 26 24 40 7z m565 5 c2 -5 -7 -18 -20 -30 -25 -24 -33 -14 -8 10 8 8 11 17
8 21 -4 3 -1 6 5 6 6 0 13 -3 15 -7z m264 -16 c9 -18 8 -24 -2 -24 -8 0 -11 7
-7 16 4 14 2 13 -15 -1 -11 -10 -23 -18 -28 -18 -4 0 2 8 13 19 12 10 19 21
15 25 -3 3 -2 6 4 6 5 0 15 -10 20 -23z m-772 -7 c3 -5 1 -10 -4 -10 -6 0 -11
5 -11 10 0 6 2 10 4 10 3 0 8 -4 11 -10z m120 0 c3 -5 1 -10 -4 -10 -6 0 -11
5 -11 10 0 6 2 10 4 10 3 0 8 -4 11 -10z m-85 -9 c0 -6 -4 -12 -8 -15 -5 -3
-9 1 -9 9 0 8 4 15 9 15 4 0 8 -4 8 -9z m123 -4 c3 -8 0 -14 -7 -14 -7 0 -13
6 -13 14 0 7 4 13 8 13 4 0 9 -6 12 -13z m137 3 c0 -5 -4 -10 -10 -10 -5 0
-10 5 -10 10 0 6 5 10 10 10 6 0 10 -4 10 -10z m96 -5 c-36 -19 -45 -19 -20 0
10 8 26 14 34 15 8 0 2 -7 -14 -15z m-416 -5 c0 -5 -7 -7 -15 -4 -8 4 -15 8
-15 10 0 2 7 4 15 4 8 0 15 -4 15 -10z m120 2 c0 -4 -9 -8 -19 -8 -11 0 -17 4
-15 8 7 10 34 10 34 0z"/>
<path d="M1595 2600 c3 -5 10 -10 16 -10 5 0 9 5 9 10 0 6 -7 10 -16 10 -8 0
-12 -4 -9 -10z"/>
<path d="M1781 2534 c-7 -8 -10 -18 -7 -21 7 -7 36 16 36 28 0 13 -13 10 -29
-7z"/>
<path d="M1800 2515 c-17 -21 -5 -31 15 -12 8 9 15 18 15 21 0 11 -18 6 -30
-9z"/>
<path d="M1035 1370 c-4 -6 -4 -10 -1 -10 2 0 11 -3 20 -6 9 -3 16 -2 16 4 0
14 -28 23 -35 12z"/>
<path d="M1260 1315 c-11 -13 -11 -19 2 -32 15 -14 19 -13 45 12 20 20 23 26
9 21 -10 -3 -24 -2 -31 4 -9 7 -16 6 -25 -5z m30 -9 c0 -3 -4 -8 -10 -11 -5
-3 -10 -1 -10 4 0 6 5 11 10 11 6 0 10 -2 10 -4z"/>
<path d="M811 1285 c-14 -14 -22 -27 -19 -30 7 -7 58 34 58 47 0 14 -14 8 -39
-17z"/>
<path d="M1786 681 c-22 -24 -20 -48 3 -61 26 -13 71 4 71 27 -1 43 -47 64
-74 34z"/>
<path d="M1588 655 c-2 -3 -15 -6 -28 -8 -21 -3 -24 -9 -24 -45 0 -39 -2 -42
-28 -42 -23 0 -28 -4 -28 -25 0 -23 13 -31 43 -26 10 1 10 0 12 -119 4 -151
16 -173 103 -183 30 -4 47 -1 58 10 22 22 12 38 -27 41 -52 5 -59 22 -59 145
0 97 2 108 18 106 9 -1 32 -1 50 0 29 1 33 4 30 24 -3 19 -10 22 -50 25 l-48
3 0 44 c0 39 -10 62 -22 50z"/>
<path d="M636 555 c-21 -7 -43 -18 -49 -24 -17 -17 -27 -13 -27 9 0 16 -7 20
-30 20 l-30 0 0 -175 0 -175 35 0 c21 0 35 5 36 13 0 6 1 59 1 117 1 119 15
153 68 165 76 17 94 -15 95 -170 l2 -120 36 -3 37 -3 1 118 c1 65 1 121 0 125
0 4 13 18 31 33 40 34 83 31 112 -8 18 -24 20 -42 21 -145 l0 -117 35 0 35 0
0 125 c-1 136 -10 168 -57 203 -38 28 -108 27 -153 -4 -19 -13 -35 -28 -35
-33 0 -5 -8 0 -17 11 -38 43 -93 57 -147 38z"/>
<path d="M1230 562 c-56 -7 -91 -24 -88 -40 3 -13 13 -16 38 -15 123 9 135 6
151 -33 13 -35 5 -41 -56 -47 -102 -10 -154 -48 -162 -117 -4 -34 -1 -44 25
-70 17 -16 39 -30 49 -31 10 -1 30 -2 45 -3 15 -2 46 5 69 16 50 22 60 23 53
3 -5 -11 2 -15 27 -15 l34 0 -2 122 c-2 67 -7 136 -13 154 -18 53 -93 87 -170
76z m102 -177 c20 -8 10 -75 -14 -102 -43 -46 -135 -33 -133 19 3 50 26 68
105 81 14 2 26 5 27 6 1 0 8 -1 15 -4z"/>
<path d="M2095 552 c-16 -8 -37 -24 -47 -36 -10 -11 -18 -16 -17 -11 6 42 -2
55 -31 55 l-30 0 0 -175 0 -175 35 0 c39 0 37 -6 37 113 -1 34 1 76 4 93 6 41
49 84 84 84 29 0 45 26 30 51 -12 18 -32 19 -65 1z"/>
<path d="M2296 558 c-57 -10 -78 -27 -65 -51 8 -14 14 -14 47 -3 65 23 128 8
144 -35 10 -27 -4 -36 -66 -43 -121 -13 -182 -80 -147 -163 24 -59 132 -77
193 -33 27 20 27 20 33 0 4 -14 15 -20 36 -20 l30 0 -3 135 c-3 117 -6 138
-24 162 -37 49 -94 66 -178 51z m129 -188 c16 -53 -18 -105 -74 -115 -71 -12
-113 63 -56 101 47 30 122 39 130 14z"/>
<path d="M1779 553 c-1 -11 -1 -316 0 -330 1 -8 15 -13 36 -13 l35 0 0 175 0
175 -35 0 c-19 0 -35 -3 -36 -7z"/>
</g>
</svg>
